<svg id="visual" viewBox="0 0 960 540" width="960" height="540" xmlns="http://www.w3.org/2000/svg" xmlns:xlink="http://www.w3.org/1999/xlink" version="1.1"><path d="M0 163L87 228L175 228L262 77L349 174L436 104L524 233L611 109L698 147L785 93L873 114L960 195L960 0L873 0L785 0L698 0L611 0L524 0L436 0L349 0L262 0L175 0L87 0L0 0Z" fill="#00ffea"></path><path d="M0 341L87 341L175 336L262 303L349 330L436 260L524 374L611 325L698 320L785 266L873 368L960 368L960 193L873 112L785 91L698 145L611 107L524 231L436 102L349 172L262 75L175 226L87 226L0 161Z" fill="#00e2e5"></path><path d="M0 406L87 390L175 411L262 363L349 384L436 325L524 406L611 401L698 379L785 352L873 422L960 406L960 366L873 366L785 264L698 318L611 323L524 372L436 258L349 328L262 301L175 334L87 339L0 339Z" fill="#00c5d8"></path><path d="M0 460L87 444L175 476L262 498L349 492L436 444L524 498L611 460L698 465L785 482L873 492L960 460L960 404L873 420L785 350L698 377L611 399L524 404L436 323L349 382L262 361L175 409L87 388L0 404Z" fill="#00a8c5"></path><path d="M0 541L87 541L175 541L262 541L349 541L436 541L524 541L611 541L698 541L785 541L873 541L960 541L960 458L873 490L785 480L698 463L611 458L524 496L436 442L349 490L262 496L175 474L87 442L0 458Z" fill="#008baf"></path></svg>