<svg id="visual" viewBox="0 0 960 540" width="960" height="540" xmlns="http://www.w3.org/2000/svg" xmlns:xlink="http://www.w3.org/1999/xlink" version="1.1"><path d="M0 77L80 77L80 55L160 55L160 98L240 98L240 93L320 93L320 98L400 98L400 87L480 87L480 98L560 98L560 39L640 39L640 55L720 55L720 60L800 60L800 44L880 44L880 104L960 104L960 55L960 0L960 0L880 0L880 0L800 0L800 0L720 0L720 0L640 0L640 0L560 0L560 0L480 0L480 0L400 0L400 0L320 0L320 0L240 0L240 0L160 0L160 0L80 0L80 0L0 0Z" fill="#ff8700"></path><path d="M0 98L80 98L80 104L160 104L160 136L240 136L240 109L320 109L320 120L400 120L400 136L480 136L480 136L560 136L560 60L640 60L640 87L720 87L720 87L800 87L800 66L880 66L880 120L960 120L960 71L960 53L960 102L880 102L880 42L800 42L800 58L720 58L720 53L640 53L640 37L560 37L560 96L480 96L480 85L400 85L400 96L320 96L320 91L240 91L240 96L160 96L160 53L80 53L80 75L0 75Z" fill="#ff7f00"></path><path d="M0 174L80 174L80 131L160 131L160 174L240 174L240 141L320 141L320 158L400 158L400 185L480 185L480 158L560 158L560 104L640 104L640 125L720 125L720 114L800 114L800 104L880 104L880 179L960 179L960 152L960 69L960 118L880 118L880 64L800 64L800 85L720 85L720 85L640 85L640 58L560 58L560 134L480 134L480 134L400 134L400 118L320 118L320 107L240 107L240 134L160 134L160 102L80 102L80 96L0 96Z" fill="#ff7600"></path><path d="M0 217L80 217L80 185L160 185L160 239L240 239L240 179L320 179L320 195L400 195L400 228L480 228L480 217L560 217L560 163L640 163L640 163L720 163L720 136L800 136L800 136L880 136L880 228L960 228L960 174L960 150L960 177L880 177L880 102L800 102L800 112L720 112L720 123L640 123L640 102L560 102L560 156L480 156L480 183L400 183L400 156L320 156L320 139L240 139L240 172L160 172L160 129L80 129L80 172L0 172Z" fill="#ff6e00"></path><path d="M0 260L80 260L80 217L160 217L160 260L240 260L240 222L320 222L320 249L400 249L400 249L480 249L480 260L560 260L560 217L640 217L640 185L720 185L720 168L800 168L800 163L880 163L880 255L960 255L960 206L960 172L960 226L880 226L880 134L800 134L800 134L720 134L720 161L640 161L640 161L560 161L560 215L480 215L480 226L400 226L400 193L320 193L320 177L240 177L240 237L160 237L160 183L80 183L80 215L0 215Z" fill="#ff6400"></path><path d="M0 320L80 320L80 276L160 276L160 336L240 336L240 320L320 320L320 341L400 341L400 309L480 309L480 298L560 298L560 249L640 249L640 282L720 282L720 239L800 239L800 201L880 201L880 336L960 336L960 287L960 204L960 253L880 253L880 161L800 161L800 166L720 166L720 183L640 183L640 215L560 215L560 258L480 258L480 247L400 247L400 247L320 247L320 220L240 220L240 258L160 258L160 215L80 215L80 258L0 258Z" fill="#ff5b00"></path><path d="M0 465L80 465L80 428L160 428L160 433L240 433L240 422L320 422L320 433L400 433L400 401L480 401L480 476L560 476L560 368L640 368L640 422L720 422L720 390L800 390L800 303L880 303L880 455L960 455L960 374L960 285L960 334L880 334L880 199L800 199L800 237L720 237L720 280L640 280L640 247L560 247L560 296L480 296L480 307L400 307L400 339L320 339L320 318L240 318L240 334L160 334L160 274L80 274L80 318L0 318Z" fill="#ff5000"></path><path d="M0 541L80 541L80 541L160 541L160 541L240 541L240 541L320 541L320 541L400 541L400 541L480 541L480 541L560 541L560 541L640 541L640 541L720 541L720 541L800 541L800 541L880 541L880 541L960 541L960 541L960 372L960 453L880 453L880 301L800 301L800 388L720 388L720 420L640 420L640 366L560 366L560 474L480 474L480 399L400 399L400 431L320 431L320 420L240 420L240 431L160 431L160 426L80 426L80 463L0 463Z" fill="#ff4400"></path></svg>