<svg id="visual" viewBox="0 0 960 540" width="960" height="540" xmlns="http://www.w3.org/2000/svg" xmlns:xlink="http://www.w3.org/1999/xlink" version="1.1"><rect x="0" y="0" width="960" height="540" fill="#33CC66"></rect><defs><linearGradient id="grad1_0" x1="43.8%" y1="0%" x2="100%" y2="100%"><stop offset="14.444444444444446%" stop-color="#009933" stop-opacity="1"></stop><stop offset="85.55555555555554%" stop-color="#009933" stop-opacity="1"></stop></linearGradient></defs><defs><linearGradient id="grad1_1" x1="43.8%" y1="0%" x2="100%" y2="100%"><stop offset="14.444444444444446%" stop-color="#009933" stop-opacity="1"></stop><stop offset="85.55555555555554%" stop-color="#17aa44" stop-opacity="1"></stop></linearGradient></defs><defs><linearGradient id="grad1_2" x1="43.8%" y1="0%" x2="100%" y2="100%"><stop offset="14.444444444444446%" stop-color="#26bb55" stop-opacity="1"></stop><stop offset="85.55555555555554%" stop-color="#17aa44" stop-opacity="1"></stop></linearGradient></defs><defs><linearGradient id="grad1_3" x1="43.8%" y1="0%" x2="100%" y2="100%"><stop offset="14.444444444444446%" stop-color="#26bb55" stop-opacity="1"></stop><stop offset="85.55555555555554%" stop-color="#33cc66" stop-opacity="1"></stop></linearGradient></defs><defs><linearGradient id="grad2_0" x1="0%" y1="0%" x2="56.3%" y2="100%"><stop offset="14.444444444444446%" stop-color="#009933" stop-opacity="1"></stop><stop offset="85.55555555555554%" stop-color="#009933" stop-opacity="1"></stop></linearGradient></defs><defs><linearGradient id="grad2_1" x1="0%" y1="0%" x2="56.3%" y2="100%"><stop offset="14.444444444444446%" stop-color="#17aa44" stop-opacity="1"></stop><stop offset="85.55555555555554%" stop-color="#009933" stop-opacity="1"></stop></linearGradient></defs><defs><linearGradient id="grad2_2" x1="0%" y1="0%" x2="56.3%" y2="100%"><stop offset="14.444444444444446%" stop-color="#17aa44" stop-opacity="1"></stop><stop offset="85.55555555555554%" stop-color="#26bb55" stop-opacity="1"></stop></linearGradient></defs><defs><linearGradient id="grad2_3" x1="0%" y1="0%" x2="56.3%" y2="100%"><stop offset="14.444444444444446%" stop-color="#33cc66" stop-opacity="1"></stop><stop offset="85.55555555555554%" stop-color="#26bb55" stop-opacity="1"></stop></linearGradient></defs><g transform="translate(960, 0)"><path d="M0 486C-71.9 487 -143.8 487.9 -186 449C-228.2 410.1 -240.6 331.4 -285.7 285.7C-330.7 240 -408.3 227.3 -447.2 185.2C-486 143.1 -486 71.6 -486 0L0 0Z" fill="#2dc35d"></path><path d="M0 364.5C-53.9 365.2 -107.9 365.9 -139.5 336.8C-171.1 307.6 -180.5 248.5 -214.3 214.3C-248 180 -306.3 170.5 -335.4 138.9C-364.5 107.3 -364.5 53.7 -364.5 0L0 0Z" fill="#1fb24c"></path><path d="M0 243C-36 243.5 -71.9 244 -93 224.5C-114.1 205.1 -120.3 165.7 -142.8 142.8C-165.4 120 -204.2 113.7 -223.6 92.6C-243 71.6 -243 35.8 -243 0L0 0Z" fill="#0da13b"></path><path d="M0 121.5C-18 121.7 -36 122 -46.5 112.3C-57 102.5 -60.2 82.8 -71.4 71.4C-82.7 60 -102.1 56.8 -111.8 46.3C-121.5 35.8 -121.5 17.9 -121.5 0L0 0Z" fill="#009933"></path></g><g transform="translate(0, 540)"><path d="M0 -486C59.2 -472.3 118.4 -458.6 181.8 -438.8C245.2 -419 312.8 -393.1 343.7 -343.7C374.5 -294.2 368.6 -221.2 386.2 -160C403.8 -98.8 444.9 -49.4 486 0L0 0Z" fill="#2dc35d"></path><path d="M0 -364.5C44.4 -354.2 88.8 -344 136.3 -329.1C183.9 -314.3 234.6 -294.8 257.7 -257.7C280.9 -220.6 276.4 -165.9 289.6 -120C302.8 -74.1 333.7 -37 364.5 0L0 0Z" fill="#1fb24c"></path><path d="M0 -243C29.6 -236.2 59.2 -229.3 90.9 -219.4C122.6 -209.5 156.4 -196.6 171.8 -171.8C187.3 -147.1 184.3 -110.6 193.1 -80C201.9 -49.4 222.4 -24.7 243 0L0 0Z" fill="#0da13b"></path><path d="M0 -121.5C14.8 -118.1 29.6 -114.7 45.4 -109.7C61.3 -104.8 78.2 -98.3 85.9 -85.9C93.6 -73.5 92.1 -55.3 96.5 -40C100.9 -24.7 111.2 -12.3 121.5 0L0 0Z" fill="#009933"></path></g></svg>